HIERARCHY
ROOT Hips
{
  OFFSET 0.000000 0.000000 0.000000
  CHANNELS 6 Xposition Yposition Zposition Xrotation Yrotation Zrotation
  JOINT Spine
  {
    OFFSET 1.471354 23.290033 -6.106481
    CHANNELS 3 Xrotation Yrotation Zrotation
    JOINT Chest
    {
      OFFSET 1.471354 23.290033 -6.106481
      CHANNELS 3 Xrotation Yrotation Zrotation
      JOINT Neck
      {
        OFFSET -2.554482 8.383535 -1.440578
        CHANNELS 3 Xrotation Yrotation Zrotation
        JOINT Head
        {
          OFFSET -6.488949 6.596687 -1.313551
          CHANNELS 3 Xrotation Yrotation Zrotation
          End Site
          {
            OFFSET -1.946685 1.979006 -0.394065
          }
        }
      }
      JOINT LeftShoulder
      {
        OFFSET 4.445460 -1.571870 -16.227993
        CHANNELS 3 Xrotation Yrotation Zrotation
        JOINT LeftArm
        {
          OFFSET -5.835221 -22.551993 -2.146173
          CHANNELS 3 Xrotation Yrotation Zrotation
          JOINT LeftForeArm
          {
            OFFSET -12.437178 -19.553858 5.324733
            CHANNELS 3 Xrotation Yrotation Zrotation
            JOINT LeftHand
            {
              OFFSET -3.243800 -4.801626 -2.197453
              CHANNELS 3 Xrotation Yrotation Zrotation
              End Site
              {
                OFFSET -0.973140 -1.440488 -0.659236
              }
            }
          }
        }
      }
      JOINT RightShoulder
      {
        OFFSET -4.445460 1.571870 16.227993
        CHANNELS 3 Xrotation Yrotation Zrotation
        JOINT RightArm
        {
          OFFSET 15.000000 -5.000000 0.000000
          CHANNELS 3 Xrotation Yrotation Zrotation
          JOINT RightForeArm
          {
            OFFSET 12.000000 -8.000000 0.000000
            CHANNELS 3 Xrotation Yrotation Zrotation
            JOINT RightHand
            {
              OFFSET 5.000000 -5.000000 0.000000
              CHANNELS 3 Xrotation Yrotation Zrotation
              End Site
              {
                OFFSET 1.500000 -1.500000 0.000000
              }
            }
          }
        }
      }
    }
  }
  JOINT LeftUpLeg
  {
    OFFSET 5.983835 -1.012600 -8.641845
    CHANNELS 3 Xrotation Yrotation Zrotation
    JOINT LeftLeg
    {
      OFFSET 2.259026 -41.160902 2.325652
      CHANNELS 3 Xrotation Yrotation Zrotation
      JOINT LeftFoot
      {
        OFFSET 27.481258 -16.640986 16.500056
        CHANNELS 3 Xrotation Yrotation Zrotation
        End Site
        {
          OFFSET 8.244378 -4.992296 4.950017
        }
      }
    }
  }
  JOINT RightUpLeg
  {
    OFFSET -5.983835 1.012600 8.641845
    CHANNELS 3 Xrotation Yrotation Zrotation
    JOINT RightLeg
    {
      OFFSET -9.973435 -38.659740 8.660418
      CHANNELS 3 Xrotation Yrotation Zrotation
      JOINT RightFoot
      {
        OFFSET -10.566743 -41.878031 2.772515
        CHANNELS 3 Xrotation Yrotation Zrotation
        End Site
        {
          OFFSET -3.170023 -12.563409 0.831755
        }
      }
    }
  }
}
MOTION
Frames: 21
Frame Time: 0.083333
0.000000 60.000000 0.000000 0.128820 -0.029334 -0.086078 0.000000 0.000000 0.000000 -0.104655 0.035151 0.088457 -0.023670 -0.020779 -0.071209 2.500000 0.000000 0.000000 -0.000002 0.000000 -0.000000 0.000003 -0.000001 0.000001 -26.166718 1.321941 -38.265770 0.000000 0.000000 0.000000 0.000000 0.000000 0.000000 0.000000 0.000000 0.000000 0.000000 0.000000 0.000000 0.000000 0.000000 0.000000 2.644020 0.136334 -0.836372 -2.638983 -0.212769 0.820269 0.000000 0.000000 0.000000 5.036761 -0.786351 3.778799 -4.895339 1.427037 -3.587241 0.000000 0.000000 0.000000
0.000372 47.090714 5.580815 0.139534 -0.033185 -0.099050 0.000000 0.000000 0.000000 -0.113211 0.038955 0.098888 -0.025692 -0.022518 -0.076937 2.129515 0.000000 0.000000 0.240558 -0.151246 0.572554 0.015073 0.129507 -0.487959 -21.869424 1.511035 -32.362286 0.000000 0.000000 0.000000 0.000000 0.000000 0.000000 0.000000 0.000000 0.000000 0.000000 0.000000 0.000000 0.000000 0.000000 0.000000 3.325908 0.320524 -1.147102 -1.677829 0.311846 -2.132957 0.000000 0.000000 0.000000 5.411869 -1.011264 3.661924 -5.323356 1.996481 -1.685638 0.000000 0.000000 0.000000
0.001788 30.011343 25.040101 0.139940 -0.033272 -0.099306 0.000000 0.000000 0.000000 -0.113498 0.039042 0.098952 -0.025784 -0.022576 -0.077125 5.000000 0.000000 0.000000 1.343476 -0.868772 3.433982 0.287005 0.714552 -2.816291 -49.726273 5.041902 -74.877814 0.000000 0.000000 0.000000 0.000000 0.000000 0.000000 0.000000 0.000000 0.000000 0.000000 0.000000 0.000000 0.000000 0.000000 0.000000 12.166584 1.555303 -3.833494 -3.431714 2.720896 -12.760738 0.000000 0.000000 0.000000 17.192323 -3.670936 9.674005 -17.307388 7.310103 0.853893 0.000000 0.000000 0.000000
0.004974 30.010977 42.997991 0.728849 -0.182914 -0.557056 0.000000 0.000000 0.000000 -0.588866 0.208725 0.530230 -0.135170 -0.117506 -0.399303 5.000000 0.000000 0.000000 3.349405 -2.231764 9.184354 1.838680 1.541342 -7.127152 -42.516871 9.601407 -70.266936 0.000000 0.000000 0.000000 0.000000 0.000000 0.000000 0.000000 0.000000 0.000000 0.000000 0.000000 0.000000 0.000000 0.000000 0.000000 24.879109 3.839759 -6.231625 -5.466393 8.153960 -28.184532 0.000000 0.000000 0.000000 30.163308 -7.335424 11.338564 -31.714759 13.868792 13.896862 0.000000 0.000000 0.000000
0.003510 30.009912 50.951957 1.766839 -0.474760 -1.481898 0.000000 0.000000 0.000000 -1.409306 0.517084 1.274585 -0.335660 -0.284627 -0.951348 5.000000 0.000000 0.000000 4.143433 -2.903682 12.619383 5.679241 0.940401 -8.775192 -26.768296 13.405419 -61.580156 0.000000 0.000000 0.000000 0.000000 0.000000 0.000000 0.000000 0.000000 0.000000 0.000000 0.000000 0.000000 0.000000 0.000000 0.000000 33.621847 5.280936 -5.861394 -17.016943 10.299664 -18.019002 0.000000 0.000000 0.000000 38.750403 -9.643607 8.024941 -42.845926 15.192329 20.809650 0.000000 0.000000 0.000000
-0.000997 30.011615 47.348886 2.037856 -0.548250 -1.723498 0.000000 0.000000 0.000000 -1.557558 0.545421 1.031850 -0.428004 -0.345788 -1.047332 5.000000 0.000000 0.000000 5.325891 -3.765448 16.029217 9.672981 -0.128139 -10.837279 0.923355 14.865502 -49.661323 0.000000 0.000000 0.000000 0.000000 0.000000 0.000000 0.000000 0.000000 0.000000 0.000000 0.000000 0.000000 0.000000 0.000000 0.000000 35.733704 5.740833 -9.460502 -19.284749 7.203908 -17.137257 0.000000 0.000000 0.000000 40.638540 -10.935643 6.603453 -46.404079 15.757996 26.485634 0.000000 0.000000 0.000000
-0.003541 30.015296 45.541693 2.378347 -0.345738 -0.816060 0.000000 0.000000 0.000000 -1.770051 0.329876 -0.341687 -0.608963 -0.556779 -1.272004 5.000000 0.000000 0.000000 5.581247 -4.410043 20.205095 10.659721 -0.612131 -14.259407 19.304841 10.093035 -42.532455 0.000000 0.000000 0.000000 0.000000 0.000000 0.000000 0.000000 0.000000 0.000000 23.833089 -21.281055 -91.311069 0.000000 0.000000 0.000000 35.014906 5.853084 -13.955227 -14.611939 3.039109 -26.599827 0.000000 0.000000 0.000000 38.904335 -11.699775 8.170076 -45.422818 18.123502 27.300398 0.000000 0.000000 0.000000
-0.000293 30.017842 44.658353 2.451352 -0.088218 0.271650 0.000000 0.000000 0.000000 -1.920212 0.052742 -1.581380 -0.849403 -1.036224 -1.687759 5.000000 0.000000 0.000000 4.643789 -4.488649 23.077395 13.036617 -2.401000 -17.029281 33.580234 4.188667 -35.635437 0.000000 0.000000 0.000000 0.000000 0.000000 0.000000 0.000000 0.000000 0.000000 11.500478 -10.440923 -91.881551 0.000000 0.000000 0.000000 34.196725 5.646856 -16.343317 -8.305821 -0.509219 -41.482538 0.000000 0.000000 0.000000 36.459274 -12.235724 12.062461 -43.826901 22.193356 24.722248 0.000000 0.000000 0.000000
0.006509 30.017702 44.786621 2.502032 0.086915 1.029373 0.000000 0.000000 0.000000 -2.019035 -0.087808 -2.226216 -1.034919 -1.381932 -2.026879 5.000000 0.000000 0.000000 3.492138 -4.265378 24.866643 14.159262 -3.672353 -18.914592 26.074895 1.316972 -27.461865 0.000000 0.000000 0.000000 0.000000 0.000000 0.000000 0.000000 0.000000 0.000000 18.781030 -16.294285 -93.046831 0.000000 0.000000 0.000000 32.738069 5.513536 -17.853718 -5.309740 0.778753 -47.362726 0.000000 0.000000 0.000000 34.923125 -12.661232 13.491221 -40.745940 23.255347 28.215627 0.000000 0.000000 0.000000
0.009721 30.017645 45.880132 3.439635 0.141080 1.553818 0.000000 0.000000 0.000000 -2.925600 -0.086415 -2.733860 -0.767615 -1.024368 -2.040971 5.000000 0.000000 0.000000 2.206388 -4.003635 26.148837 13.178904 -3.556393 -20.420399 6.365451 -0.132691 -14.578777 0.000000 0.000000 0.000000 0.000000 0.000000 0.000000 0.000000 0.000000 0.000000 -87.039397 10.788382 65.795769 0.000000 0.000000 0.000000 31.875425 5.115970 -17.906853 -5.863053 2.473858 -46.421015 0.000000 0.000000 0.000000 34.299141 -13.239441 14.364431 -38.923001 23.865235 31.767136 0.000000 0.000000 0.000000
0.012417 30.017384 47.563440 4.190741 0.189008 2.020481 0.000000 0.000000 0.000000 -3.512800 -0.026059 -3.142319 -0.513373 -0.521623 -1.894966 5.000000 0.000000 0.000000 1.524243 -3.762410 25.265321 11.908438 -2.865776 -19.953414 -0.118629 6.730970 -21.674484 0.000000 0.000000 0.000000 0.000000 0.000000 0.000000 0.000000 0.000000 0.000000 -1.216516 -0.078059 -87.762867 0.000000 0.000000 0.000000 31.049511 4.979662 -16.790022 -7.339409 3.490613 -44.023714 0.000000 0.000000 0.000000 34.178264 -13.646790 15.263003 -38.410010 24.792704 37.338742 0.000000 0.000000 0.000000
0.015301 30.016338 49.317928 5.227949 0.095265 1.964972 0.000000 0.000000 0.000000 -4.306748 0.178363 -3.016312 -0.460211 -0.233618 -1.822667 5.000000 0.000000 0.000000 2.545083 -3.702919 20.850733 9.855087 -1.343392 -16.405366 -1.618264 14.812453 -47.731762 0.000000 0.000000 0.000000 0.000000 0.000000 0.000000 0.000000 0.000000 0.000000 0.000000 0.000000 0.000000 0.000000 0.000000 0.000000 31.808485 5.224413 -14.589122 -10.135838 5.092666 -40.463076 0.000000 0.000000 0.000000 35.652756 -13.443743 13.942768 -41.322095 24.675530 42.892118 0.000000 0.000000 0.000000
0.017162 30.014633 50.216878 5.457707 -0.076048 1.266183 0.000000 0.000000 0.000000 -4.507259 0.350851 -2.076536 -0.439764 -0.154482 -1.743922 5.000000 0.000000 0.000000 4.026790 -2.848688 11.931437 5.557725 0.543605 -8.369182 -7.952586 10.057006 -36.989017 0.000000 0.000000 0.000000 0.000000 0.000000 0.000000 0.000000 0.000000 0.000000 0.000000 0.000000 0.000000 0.000000 0.000000 0.000000 34.112840 5.365012 -12.363944 -11.743993 5.926381 -39.247510 0.000000 0.000000 0.000000 39.208112 -12.880161 10.247750 -46.983076 23.324220 47.939033 0.000000 0.000000 0.000000
0.015607 30.013041 49.768185 3.908232 -0.138920 0.498187 0.000000 0.000000 0.000000 -3.296615 0.267889 -1.124991 -0.281071 -0.216704 -1.664486 5.000000 0.000000 0.000000 4.969077 -1.650916 3.214354 -0.264289 1.411905 -0.578926 -23.602318 1.788737 -31.283257 0.000000 0.000000 0.000000 0.000000 0.000000 0.000000 0.000000 0.000000 0.000000 -9.454529 12.987816 -80.873548 0.000000 0.000000 0.000000 37.857064 4.842011 -9.723449 -12.264117 6.431053 -40.522629 0.000000 0.000000 0.000000 43.703894 -11.950316 4.631602 -51.998358 19.456632 50.789167 0.000000 0.000000 0.000000
0.011910 30.012179 48.038915 0.514278 0.004745 0.133423 0.000000 0.000000 0.000000 -0.340560 -0.034848 -0.605681 -0.092206 -0.323138 -1.588719 5.000000 0.000000 0.000000 5.594938 -0.757413 -3.123452 -3.491857 0.547323 4.392075 -56.935184 3.074947 -73.640544 0.000000 0.000000 0.000000 0.000000 0.000000 0.000000 0.000000 0.000000 0.000000 0.000000 0.000000 0.000000 0.000000 0.000000 0.000000 39.889223 3.660380 -6.808782 -12.903584 7.854590 -40.435394 0.000000 0.000000 0.000000 46.458214 -11.611807 0.038460 -54.020411 13.567437 39.606240 0.000000 0.000000 0.000000
0.007806 30.011994 46.093793 -1.539653 0.206361 0.390707 0.000000 0.000000 0.000000 1.532577 -0.319981 -0.966659 -0.139905 -0.495531 -1.449248 5.000000 0.000000 0.000000 5.279036 -0.328332 -5.701826 -5.485417 -0.232869 6.227059 -61.707745 -0.703070 -74.163158 0.000000 0.000000 0.000000 0.000000 0.000000 0.000000 0.000000 0.000000 0.000000 4.278455 -5.591627 -81.259026 0.000000 0.000000 0.000000 39.213305 2.475392 -3.956221 -12.899955 9.460935 -39.183130 0.000000 0.000000 0.000000 45.901134 -11.437991 -1.102799 -51.430045 9.149031 18.019212 0.000000 0.000000 0.000000
0.006210 30.012103 44.848688 -1.863347 0.296588 0.638922 0.000000 0.000000 0.000000 1.927277 -0.410426 -1.298630 -0.070815 -0.347971 -1.377004 5.000000 0.000000 0.000000 4.973098 0.077960 -7.815850 -9.212931 -0.849987 7.942971 -64.934522 -4.481907 -74.829260 0.000000 0.000000 0.000000 0.000000 0.000000 0.000000 0.000000 0.000000 0.000000 6.914216 -8.955669 -80.831568 0.000000 0.000000 0.000000 37.380396 1.691297 -1.864653 -12.660293 9.998347 -38.108759 0.000000 0.000000 0.000000 44.004966 -11.417235 -0.180552 -46.671844 8.009606 4.480071 0.000000 0.000000 0.000000
0.008541 30.012925 45.152732 -1.183758 0.286999 0.773894 0.000000 0.000000 0.000000 1.183059 -0.423177 -1.471154 0.077577 -0.213277 -1.296352 5.000000 0.000000 0.000000 4.613763 -0.098558 -6.485282 -11.080477 -0.461219 6.886869 -60.976068 -4.100013 -76.423817 0.000000 0.000000 0.000000 0.000000 0.000000 0.000000 0.000000 0.000000 0.000000 -2.867638 2.967782 -82.448510 0.000000 0.000000 0.000000 35.796973 1.722925 -1.418794 -13.538552 10.141770 -33.661090 0.000000 0.000000 0.000000 42.328501 -11.427818 2.296929 -44.685209 10.096112 5.169594 0.000000 0.000000 0.000000
0.013081 30.014134 47.024785 -0.321883 0.184217 0.607413 0.000000 0.000000 0.000000 0.486362 -0.265762 -1.352981 0.169455 0.024987 -1.263207 5.000000 0.000000 0.000000 2.970216 -0.315413 -4.290020 -8.937468 0.309385 5.624690 -50.340362 0.668748 -78.852541 0.000000 0.000000 0.000000 0.000000 0.000000 0.000000 0.000000 0.000000 0.000000 -13.119041 15.743474 -81.329815 0.000000 0.000000 0.000000 34.496862 2.593196 -2.328818 -13.453282 9.020549 -32.930890 0.000000 0.000000 0.000000 40.788979 -11.482036 7.215237 -42.737997 14.866631 16.170601 0.000000 0.000000 0.000000
0.018166 30.014770 49.841360 0.798736 -0.046214 -0.006038 0.000000 0.000000 0.000000 -0.152090 0.112035 -0.802084 -0.009369 0.198497 -1.260617 5.000000 0.000000 0.000000 2.531830 -0.559985 -2.403881 -5.653345 0.962156 5.315710 -50.752977 4.547809 -73.365777 0.000000 0.000000 0.000000 0.000000 0.000000 0.000000 0.000000 0.000000 0.000000 -17.894073 22.503960 -78.958056 0.000000 0.000000 0.000000 33.310743 4.553749 -6.470399 -10.961918 4.984754 -39.768185 0.000000 0.000000 0.000000 39.156122 -11.835251 14.138366 -41.074284 22.173666 34.574347 0.000000 0.000000 0.000000
0.023476 30.014211 52.437718 2.412085 -0.334534 -0.781502 0.000000 0.000000 0.000000 -1.527462 0.437808 -0.177479 -0.198002 0.157924 -1.315054 5.000000 0.000000 0.000000 3.625471 -0.965368 -0.493518 -1.987567 1.390033 5.039132 -55.720311 7.839615 -59.343272 0.000000 0.000000 0.000000 0.000000 0.000000 0.000000 0.000000 0.000000 0.000000 -18.127020 21.919912 -80.584669 0.000000 0.000000 0.000000 33.628131 6.012605 -9.057725 -11.728077 3.403266 -39.430327 0.000000 0.000000 0.000000 39.623749 -11.510176 12.452936 -44.616099 22.728418 45.731578 0.000000 0.000000 0.000000
